<svg xmlns="http://www.w3.org/2000/svg" width="256" height="256" viewBox="0 0 256 256">
  <defs>
    <style>
      .cls-1 {
        fill-rule: evenodd;
      }
    </style>
  </defs>
  <path id="圓角矩形_1" data-name="圓角矩形 1" class="cls-1" d="M227.219,221.258A22.761,22.761,0,0,1,204.438,244H52.562a22.761,22.761,0,0,1-22.781-22.742L7,115.129A22.762,22.762,0,0,1,29.782,92.387H227.219A22.762,22.762,0,0,1,250,115.129Zm-18.51-113.71H48.291c-10.222,0-18.51,8.039-18.51,17.954l18.51,85.383c0,9.915,8.287,17.954,18.51,17.954H190.2c10.223,0,18.51-8.039,18.51-17.954l18.51-85.383C227.219,115.587,218.931,107.548,208.709,107.548ZM181.674,84.806c-1.97-37.03-26.687-66.331-56.971-66.331s-55,29.3-56.971,66.331H60.111C62.094,42.541,90.21,9,124.7,9S187.312,42.541,189.3,84.806h-7.622Z"/>
</svg>
