<svg xmlns="http://www.w3.org/2000/svg" width="256" height="256" viewBox="0 0 256 256">
  <defs>
    <style>
      .cls-1 {
        fill-rule: evenodd;
      }
    </style>
  </defs>
  <path id="形狀_1" data-name="形狀 1" class="cls-1" d="M226.828,35.792C198.605,12.04,155,15.608,128,43.123c-27-27.515-70.607-31.131-98.83-7.331C-7.55,66.728-2.179,117.163,23.994,143.9l85.645,87.333a25.63,25.63,0,0,0,36.719.049L232,143.945C258.127,117.212,263.6,66.776,226.828,35.792ZM221.3,127.426l-91.645,94.333c-1.172,1.173-2.149,1.173-3.321,0L34.693,127.426c-17.822-18.18-18.436-55.586,6.565-76.649C60.252,34.8,92.549,33.19,110.909,51.908L128,69.355l17.09-17.447c18.457-18.815,50.754-17.112,69.651-1.18,24.951,21.064,24.24,58.664,6.564,76.7h0Z"/>
</svg>
