<svg xmlns="http://www.w3.org/2000/svg" width="256" height="256" viewBox="0 0 256 256">
  <defs>
    <style>
      .cls-1 {
        fill-rule: evenodd;
      }
    </style>
  </defs>
  <path id="形狀_1" data-name="形狀 1" class="cls-1" d="M128.1,30.434c31.824,0,35.593.139,48.108,0.7,11.631,0.511,17.913,2.464,22.1,4.091a36.84,36.84,0,0,1,13.678,8.88,37.291,37.291,0,0,1,8.933,13.669c1.628,4.184,3.583,10.508,4.094,22.084,0.558,12.553.7,16.319,0.7,48.074s-0.14,35.568-.7,48.074c-0.511,11.624-2.466,17.9-4.094,22.085a36.8,36.8,0,0,1-8.886,13.669,37.347,37.347,0,0,1-13.679,8.927c-4.187,1.627-10.515,3.58-22.1,4.091-12.561.558-16.33,0.7-48.107,0.7s-35.592-.139-48.107-0.7c-11.631-.511-17.912-2.464-22.1-4.091a36.852,36.852,0,0,1-13.678-8.88,37.3,37.3,0,0,1-8.933-13.67c-1.628-4.184-3.582-10.507-4.094-22.084-0.558-12.553-.7-16.319-0.7-48.074s0.139-35.568.7-48.075c0.512-11.623,2.466-17.9,4.094-22.084A36.808,36.808,0,0,1,44.22,44.149,37.328,37.328,0,0,1,57.9,35.222c4.188-1.627,10.515-3.58,22.1-4.091C92.514,30.573,96.282,30.434,128.1,30.434ZM128.1,9C95.77,9,91.723,9.139,79.021,9.7c-12.655.558-21.355,2.6-28.892,5.533A58.14,58.14,0,0,0,29.006,28.992,58.315,58.315,0,0,0,15.235,50.054C12.3,57.632,10.256,66.28,9.7,78.926,9.139,91.665,9,95.71,9,128.023s0.139,36.358.7,49.051c0.558,12.646,2.605,21.34,5.537,28.872a58.085,58.085,0,0,0,13.771,21.108A58.227,58.227,0,0,0,50.082,240.77c7.584,2.929,16.237,4.975,28.892,5.532,12.7,0.558,16.749.7,49.084,0.7s36.383-.14,49.085-0.7c12.655-.557,21.355-2.6,28.892-5.532a60.831,60.831,0,0,0,34.8-34.777c2.931-7.579,4.978-16.227,5.536-28.873,0.559-12.692.7-16.737,0.7-49.05s-0.139-36.358-.7-49.051c-0.558-12.646-2.6-21.34-5.536-28.872a55.744,55.744,0,0,0-13.632-21.154,58.233,58.233,0,0,0-21.076-13.716c-7.584-2.929-16.238-4.975-28.893-5.533C164.489,9.139,160.441,9,128.1,9h0Zm0,57.884a61.139,61.139,0,1,0,61.181,61.139A61.175,61.175,0,0,0,128.1,66.884Zm0,100.8a39.659,39.659,0,1,1,39.687-39.659A39.678,39.678,0,0,1,128.1,167.682h0ZM205.989,64.467a14.283,14.283,0,1,1-14.283-14.274A14.278,14.278,0,0,1,205.989,64.467Z"/>
</svg>
