<svg xmlns="http://www.w3.org/2000/svg" width="256" height="256" viewBox="0 0 256 256">
  <defs>
    <style>
      .cls-1 {
        fill-rule: evenodd;
      }
    </style>
  </defs>
  <path id="形狀_2" data-name="形狀 2" class="cls-1" d="M153.527,100.5v37.766a1.678,1.678,0,0,1-1.7,1.7h-6.057a1.76,1.76,0,0,1-1.382-.69l-17.322-23.372v22.416a1.678,1.678,0,0,1-1.7,1.7h-6.058a1.678,1.678,0,0,1-1.7-1.7V100.555a1.678,1.678,0,0,1,1.7-1.7h6a1.6,1.6,0,0,1,1.381.743l17.322,23.371V100.555a1.678,1.678,0,0,1,1.7-1.7h6.057a1.681,1.681,0,0,1,1.754,1.646h0Zm-43.572-1.7H103.9a1.678,1.678,0,0,0-1.7,1.7v37.766a1.678,1.678,0,0,0,1.7,1.7h6.057a1.678,1.678,0,0,0,1.7-1.7V100.5a1.712,1.712,0,0,0-1.7-1.7h0ZM95.343,130.459H78.818V100.5a1.678,1.678,0,0,0-1.7-1.7H71.061a1.678,1.678,0,0,0-1.7,1.7v37.766a1.562,1.562,0,0,0,.478,1.169,1.791,1.791,0,0,0,1.169.478H95.29a1.679,1.679,0,0,0,1.7-1.7v-6.055a1.7,1.7,0,0,0-1.647-1.7h0ZM185.408,98.8H161.125a1.712,1.712,0,0,0-1.7,1.7v37.766a1.711,1.711,0,0,0,1.7,1.7h24.283a1.678,1.678,0,0,0,1.7-1.7v-6.055a1.679,1.679,0,0,0-1.7-1.7H168.882v-6.374h16.526a1.678,1.678,0,0,0,1.7-1.7V116.33a1.678,1.678,0,0,0-1.7-1.7H168.882v-6.375h16.526a1.678,1.678,0,0,0,1.7-1.7V100.5a1.786,1.786,0,0,0-1.7-1.7h0Zm61.584-46.371V203.973A43.272,43.272,0,0,1,203.58,247H51.985a43.306,43.306,0,0,1-43.04-43.4V52.059A43.306,43.306,0,0,1,52.357,9.035h151.6A43.272,43.272,0,0,1,246.992,52.431ZM214.26,117.552c0-38.775-38.895-70.326-86.663-70.326S40.933,78.777,40.933,117.552c0,34.738,30.819,63.846,72.477,69.37,10.148,2.178,8.979,5.9,6.694,19.547-0.372,2.178-1.753,8.552,7.493,4.674s49.893-29.373,68.119-50.3C208.256,147.032,214.26,133.062,214.26,117.552Z"/>
</svg>
