<?xml version="1.0" encoding="utf-8"?>
<!-- Generator: Adobe Illustrator 19.2.1, SVG Export Plug-In . SVG Version: 6.00 Build 0)  -->
<svg version="1.1" id="圖層_1" xmlns="http://www.w3.org/2000/svg" xmlns:xlink="http://www.w3.org/1999/xlink" x="0px" y="0px"
	 viewBox="0 0 256 256" style="enable-background:new 0 0 256 256;" xml:space="preserve">
<path id="橢圓_3" d="M226.9,243v-7.5c0-41.7-33.8-75.5-75.5-75.5h-7.5c-41.7,0-75.5,33.8-75.5,75.5v7.5H53.3v-15.1
	c0-41.7,33.8-75.5,75.5-75.5l0,0h37.7c41.7,0,75.5,33.8,75.5,75.5V243H226.9z M148.4,144.9c-37.5,0-67.9-30.4-67.9-67.9
	C80.5,39.4,110.9,9,148.4,9s67.9,30.4,67.9,67.9c0,0,0,0,0,0C216.4,114.5,185.9,144.9,148.4,144.9
	C148.4,144.9,148.4,144.9,148.4,144.9z M148.4,24.1c-29.2,0-52.8,23.7-52.8,52.8s23.7,52.8,52.8,52.8c29.2,0,52.8-23.7,52.8-52.8
	c0,0,0,0,0,0C201.3,47.8,177.6,24.1,148.4,24.1L148.4,24.1z M11.8,144.9h52l-24.7,24.7c-1.2,1.2-1.2,3.2,0,4.5
	c1.2,1.2,3.2,1.2,4.5,0l0,0L72.6,145c0.9,0,1.7-0.3,2.3-0.9c0.7-0.8,1-1.9,0.6-3c0.3-1,0.1-2.2-0.6-3c-0.6-0.6-1.5-0.9-2.3-0.9
	l-29.1-29.1c-1.2-1.2-3.2-1.2-4.5,0s-1.2,3.2,0,4.5l24.7,24.7h-52c-2.1,0-3.7,1.8-3.7,3.8C8.1,143.2,9.7,144.8,11.8,144.9z"/>
</svg>
