<?xml version="1.0" encoding="utf-8"?>
<!-- Generator: Adobe Illustrator 19.2.1, SVG Export Plug-In . SVG Version: 6.00 Build 0)  -->
<svg version="1.1" id="圖層_1" xmlns="http://www.w3.org/2000/svg" xmlns:xlink="http://www.w3.org/1999/xlink" x="0px" y="0px"
	 viewBox="0 0 300 80" style="enable-background:new 0 0 300 80;" xml:space="preserve">
<style type="text/css">
	.st0{enable-background:new    ;}
	.st1{fill:#7C726F;}
</style>
<g class="st0">
	<path class="st1" d="M43.7,44.1l-0.1-3.7c0-4.7-1.7-7.1-5-7.1c-2.1,0-3.6,0.7-4.5,2c-0.9,1.3-1.6,2.7-2.1,4.1v23.3l0.1,4.2
		c0,2.5,0.2,4.1,0.7,4.7c0.5,0.7,1.8,1,4,1V74H8.5v-1.5l2.2-0.1c1.8-0.2,2.8-0.6,3.2-1.3c0.4-0.7,0.5-2.1,0.5-4.4l0.1-4.2V40.9
		l-0.1-3.7c-0.1-1.5-0.3-2.5-0.5-3.3c-0.2-0.7-1.3-1.2-3.3-1.4l-2.1-0.2v-1.5h23.2v6.8c0.7-1.7,1.9-3.4,3.6-5.1
		c1.7-1.7,5.1-2.6,10-2.6c4.3,0,8,1.2,11.2,3.6c3.2,2.4,4.7,5.3,4.7,8.5v20.5l0.1,4.2c0,2.2,0.2,3.6,0.5,4.3
		c0.4,0.7,1.4,1.1,3.2,1.3l2,0.1V74H38.9v-1.5c2.2,0,3.5-0.3,4-1c0.5-0.7,0.7-2.3,0.7-4.7l0.1-4.2V44.1z"/>
	<path class="st1" d="M97.3,74H67.8v-1.5l2.2-0.1c1.8-0.2,2.8-0.6,3.2-1.3c0.4-0.7,0.5-2.1,0.5-4.4l0.1-4.2V40.9l-0.1-3.7
		c-0.1-1.5-0.3-2.5-0.5-3.3c-0.2-0.7-1.3-1.2-3.3-1.4l-2.5-0.2v-1.5h23.9v31.7l0.1,4.2c0,2.2,0.2,3.6,0.5,4.3
		c0.4,0.7,1.4,1.1,3.2,1.3l2.2,0.1V74z M73.5,15.7c0-2.4,0.9-4.4,2.6-6c1.7-1.7,3.8-2.5,6.3-2.5c2.5,0,4.6,0.8,6.4,2.4
		c1.7,1.6,2.6,3.7,2.6,6.1c0,2.4-0.9,4.5-2.6,6.1c-1.7,1.7-3.9,2.5-6.4,2.5c-2.4,0-4.5-0.8-6.3-2.5C74.4,20.2,73.5,18.1,73.5,15.7z"
		/>
	<path class="st1" d="M134,44.1l-0.1-3.7c0-4.7-1.7-7.1-5-7.1c-2.1,0-3.6,0.7-4.5,2c-0.9,1.3-1.6,2.7-2.1,4.1v23.3l0.1,4.2
		c0,2.5,0.2,4.1,0.7,4.7c0.5,0.7,1.8,1,4,1V74H98.8v-1.5l2.2-0.1c1.8-0.2,2.8-0.6,3.2-1.3c0.4-0.7,0.5-2.1,0.5-4.4l0.1-4.2V40.9
		l-0.1-3.7c-0.1-1.5-0.3-2.5-0.5-3.3c-0.2-0.7-1.3-1.2-3.3-1.4l-2.1-0.2v-1.5H122v6.8c0.7-1.7,1.9-3.4,3.6-5.1
		c1.7-1.7,5.1-2.6,10-2.6c4.3,0,8,1.2,11.2,3.6c3.2,2.4,4.7,5.3,4.7,8.5v20.5l0.1,4.2c0,2.2,0.2,3.6,0.5,4.3
		c0.4,0.7,1.4,1.1,3.2,1.3l2,0.1V74h-28.2v-1.5c2.2,0,3.5-0.3,4-1c0.5-0.7,0.7-2.3,0.7-4.7l0.1-4.2V44.1z"/>
	<path class="st1" d="M187.7,74h-29.6v-1.5l2.2-0.1c1.8-0.2,2.8-0.6,3.2-1.3c0.4-0.7,0.5-2.1,0.5-4.4l0.1-4.2V40.9l-0.1-3.7
		c-0.1-1.5-0.3-2.5-0.5-3.3c-0.2-0.7-1.3-1.2-3.3-1.4l-2.5-0.2v-1.5h23.9v31.7l0.1,4.2c0,2.2,0.2,3.6,0.5,4.3
		c0.4,0.7,1.4,1.1,3.2,1.3l2.2,0.1V74z M163.8,15.7c0-2.4,0.9-4.4,2.6-6c1.7-1.7,3.8-2.5,6.3-2.5c2.5,0,4.6,0.8,6.4,2.4
		c1.7,1.6,2.6,3.7,2.6,6.1c0,2.4-0.9,4.5-2.6,6.1c-1.7,1.7-3.9,2.5-6.4,2.5c-2.4,0-4.5-0.8-6.3-2.5
		C164.7,20.2,163.8,18.1,163.8,15.7z"/>
	<path class="st1" d="M243,52.2c0,6.9-2.3,12.3-6.9,16.5c-4.6,4.1-10.5,6.2-17.6,6.2c-4.7,0-8.3-1-10.9-2.9
		c-2.6-1.9-4.8-3.9-6.5-5.8h-0.5c-0.8,0.8-1.7,2-2.7,3.6c-0.9,1.5-1.8,3-2.7,4.5h-1.1c0.1-2.4,0.1-4.7,0.1-6.9
		c0-2.2,0.1-4.7,0.1-7.8V17.7l-0.1-3.7c0-1.6-0.3-2.8-0.8-3.4c-0.5-0.6-1.6-1-3.3-1.2l-3.5-0.2V7.7h25.2v20.6l-0.2,7.2
		c0.7-1.2,1.7-2.4,3.2-3.6c1.5-1.2,4.3-1.8,8.3-1.8c5.8,0,10.5,2,14.1,6.1S243,45.6,243,52.2z M224.6,52.3c0-0.8-0.1-2.5-0.2-4.9
		c-0.1-2.4-0.2-3.9-0.2-4.4c0-3.2-0.5-5.8-1.4-7.8c-1-2-2.5-3-4.7-3c-1.9,0-3.2,0.5-4.1,1.6c-0.8,1.1-1.4,2.3-1.6,3.6
		c-0.2,1.4-0.4,3.3-0.5,5.9c-0.1,2.6-0.1,5.1-0.1,7.7v6.1c0,1.6,0.1,3.3,0.3,5.1c0,3.2,0.5,5.9,1.5,8c1,2.1,2.5,3.1,4.6,3.1
		c2,0,3.5-1.1,4.5-3.3c1-2.2,1.5-4.8,1.5-8c0-1.2,0-2.7,0.1-4.3C224.4,56.2,224.5,54.3,224.6,52.3z"/>
	<path class="st1" d="M294.8,52.4c0,6.4-2.4,11.8-7.3,16.1c-4.9,4.3-10.6,6.4-17.2,6.4c-7,0-12.8-2.1-17.5-6.4
		c-4.7-4.3-7-9.6-7-16.1c0-6.4,2.4-11.8,7.1-16.1c4.8-4.3,10.6-6.4,17.4-6.4c6.7,0,12.5,2.1,17.3,6.4
		C292.4,40.6,294.8,45.9,294.8,52.4z M276.7,52.3c0-0.8-0.1-2.5-0.2-5.1c-0.1-2.5-0.2-4.1-0.2-4.5c0-3.3-0.5-6-1.5-8.1
		c-1-2.1-2.6-3.2-4.7-3.2c-1.9,0-3.4,1.1-4.5,3.3c-1,2.2-1.5,4.9-1.5,8c0,1.2,0,2.6-0.1,4.2c-0.1,1.7-0.2,3.5-0.2,5.4
		c0,0.8,0.1,2.6,0.2,5.2c0.1,2.6,0.2,4.2,0.2,4.6c0,3.3,0.5,6,1.5,8.1c1,2.1,2.5,3.2,4.6,3.2c2,0,3.5-1.1,4.5-3.3
		c1-2.2,1.5-4.8,1.5-8c0-1.2,0-2.7,0.1-4.3C276.5,56.2,276.6,54.3,276.7,52.3z"/>
</g>
</svg>
