<?xml version="1.0" encoding="utf-8"?>
<!-- Generator: Adobe Illustrator 19.2.1, SVG Export Plug-In . SVG Version: 6.00 Build 0)  -->
<svg version="1.1" id="圖層_1" xmlns="http://www.w3.org/2000/svg" xmlns:xlink="http://www.w3.org/1999/xlink" x="0px" y="0px"
	 viewBox="0 0 256 256" style="enable-background:new 0 0 256 256;" xml:space="preserve">
<path id="橢圓_3_拷貝" d="M208.9,243v-7.5c0-41.7-33.8-75.5-75.5-75.5h-7.5c-41.7,0-75.5,33.8-75.5,75.5v7.5H35.3v-15.1
	c0-41.7,33.8-75.5,75.5-75.5l0,0h37.7c41.7,0,75.5,33.8,75.5,75.5V243H208.9z M129.4,144.9c-37.5,0-67.9-30.4-67.9-67.9
	C61.5,39.4,91.9,9,129.4,9s67.9,30.4,67.9,67.9c0,0,0,0,0,0C197.4,114.5,166.9,144.9,129.4,144.9
	C129.4,144.9,129.4,144.9,129.4,144.9z M129.4,24.1c-29.2,0-52.8,23.7-52.8,52.8s23.7,52.8,52.8,52.8c29.2,0,52.8-23.7,52.8-52.8
	c0,0,0,0,0,0C182.3,47.8,158.6,24.1,129.4,24.1L129.4,24.1z"/>
</svg>
