<svg xmlns="http://www.w3.org/2000/svg" width="144" height="60" viewBox="0 0 144 60">
  <defs>
    <style>
      .cls-1 {
        fill: #fff;
        fill-rule: evenodd;
      }
    </style>
  </defs>
  <path id="Rocio" class="cls-1" d="M143.21,34.3q-0.18.324-.5,0.792a4.106,4.106,0,0,1-.756.828l-0.864.5a3.7,3.7,0,0,0-.612.612,2.873,2.873,0,0,1-.54.54,1.117,1.117,0,0,0-.324.288c-0.12.144-.2,0.192-0.252,0.144a0.4,0.4,0,0,0-.216.324q0,0.181-.288.108a1.854,1.854,0,0,0-.612.612,1.735,1.735,0,0,1-.684.612,1.147,1.147,0,0,0-.288.216q-0.144.145-.216,0a0.81,0.81,0,0,1-.216.144,2.578,2.578,0,0,0-.252.144,2.165,2.165,0,0,1-.252.144l-2.736,1.3a3.309,3.309,0,0,1-.72.4q-0.432.181-.828,0.36t-0.972.4a0.386,0.386,0,0,1-.36.108,2.73,2.73,0,0,0-.72.036,2.506,2.506,0,0,0-.576.324,2,2,0,0,1-.648.324q-1.152.145-2.2,0.324a3.348,3.348,0,0,0-1.4.468q-0.216.361-.324,0.5a0.887,0.887,0,0,1-.216.216,0.549,0.549,0,0,0-.18.216q-0.072.145-.288,0.5-0.144-.216-0.108-0.108a1.092,1.092,0,0,1,.036.324,3.747,3.747,0,0,1-.684,1.152,6.917,6.917,0,0,0-.756,1.008,0.7,0.7,0,0,0-.4.252c-0.168.168-.252,0.227-0.252,0.18a1.351,1.351,0,0,1-.864.72,1.376,1.376,0,0,0-.864.5q-0.144-.145-0.18,0t-0.18,0a0.508,0.508,0,0,1-.432.288,12.875,12.875,0,0,1-4.608.36l0.072-.072a0.356,0.356,0,0,0-.36-0.072,0.812,0.812,0,0,1-.36.072q-0.288-.216-0.468-0.36a1.244,1.244,0,0,0-.54-0.216,3.37,3.37,0,0,1-1.584-1.944,0.831,0.831,0,0,0-.252-0.432,0.332,0.332,0,0,1-.036-0.5,2.318,2.318,0,0,1-.4-1.116,2.457,2.457,0,0,1,.252-1.476,11.432,11.432,0,0,1,.648-2.88c0.227-.512.426-0.953,0.6-1.338-0.054.035-.108,0.069-0.171,0.114a6.425,6.425,0,0,0-.648.5l-0.864.864c-0.144.1-.4,0.288-0.756,0.576s-0.588.48-.684,0.576l-0.144-.072a0.145,0.145,0,0,1-.036.108,0.287,0.287,0,0,0-.036.18c-0.048-.1-0.12-0.108-0.216-0.036a0.146,0.146,0,0,0,0,.252h-0.216a2,2,0,0,1-.288.5,2.3,2.3,0,0,1-.792.72V44.127c-0.1-.047-0.144-0.036-0.144.036a0.21,0.21,0,0,1-.144.18h0.216a0.388,0.388,0,0,1-.216.324q-0.144.037-.36,0.108c-0.048,0-.036-0.024.036-0.072s0.06-.072-0.036-0.072c-0.1.1-.2,0.216-0.324,0.36a1.846,1.846,0,0,1-.4.36c-0.1-.144-0.18-0.168-0.252-0.072a0.7,0.7,0,0,1-.252.216l-0.36.144c-0.144.1-.276,0.192-0.4,0.288a1.244,1.244,0,0,1-.54.216,0.643,0.643,0,0,0-.072.288,0.063,0.063,0,0,1-.072-0.072q0-.071-0.144,0-0.144.145-.36,0.324a1.262,1.262,0,0,1-.576.252,1.619,1.619,0,0,1-.828.72q-0.54.216-1.116,0.432a5.564,5.564,0,0,1-1.728.792q-0.793.143-1.728,0.324a6.294,6.294,0,0,1-2.016.036q-0.72-.145-1.4-0.216a2.6,2.6,0,0,1-1.044-.288,3.148,3.148,0,0,1-.828-0.864q-0.324-.5-0.54-0.864a0.248,0.248,0,0,1-.216-0.216,0.591,0.591,0,0,0-.216-0.36c0-.047.012-0.072,0.036-0.072s0.036-.047.036-0.144a0.4,0.4,0,0,1-.216.144,0.465,0.465,0,0,1,.108-0.576,0.406,0.406,0,0,0,.036-0.576,0.837,0.837,0,0,0-.144.576,0.535,0.535,0,0,1-.144-0.4,0.24,0.24,0,0,1,.288-0.252,2.334,2.334,0,0,1,.288-1.008,0.3,0.3,0,0,0-.216.072,1.1,1.1,0,0,1,.288-0.576,0.777,0.777,0,0,0,.216-0.576,0.1,0.1,0,0,0-.108.144c0.025,0.1.012,0.144-.036,0.144A1.015,1.015,0,0,1,92.27,42.4a0.049,0.049,0,0,0,.011-0.008,0.523,0.523,0,0,1-.083.188,0.218,0.218,0,0,0,0,.324,0.358,0.358,0,0,0,.18-0.288,0.574,0.574,0,0,0-.036-0.36,2.667,2.667,0,0,0,.18-0.72,0.577,0.577,0,0,1,.4-0.5c0.144-.144.18-0.263,0.108-0.36s-0.012-.168.18-0.216c0.028-.056.048-0.113,0.074-0.169a0.2,0.2,0,0,0-.145-0.011,0.313,0.313,0,0,1-.144.036,0.294,0.294,0,0,1-.072.216,0.821,0.821,0,0,0-.144.216L92.7,40.671v0.216a0.835,0.835,0,0,0-.54.324q-0.469.4-.612,0.54a0.646,0.646,0,0,0-.036.36,0.217,0.217,0,0,1-.036.216,0.228,0.228,0,0,0-.288.108,4.019,4.019,0,0,1-.288.324c-0.1-.1-0.084-0.168.036-0.216a0.235,0.235,0,0,0,.18-0.216c0-.047-0.072-0.072-0.216-0.072a2.731,2.731,0,0,0-.792.648,10.087,10.087,0,0,0-.648.936,1.036,1.036,0,0,0-.54.252l-0.324.324c-0.048-.047-0.048-0.072,0-0.072a0.064,0.064,0,0,0,.072-0.072,1.692,1.692,0,0,0-1.008.5,2.8,2.8,0,0,1-1.008.648,0.175,0.175,0,0,0,0,.216h-0.5a0.213,0.213,0,0,0-.144-0.072c-0.144,0-.192.036-0.144,0.108a0.2,0.2,0,0,1-.072.252,1.78,1.78,0,0,0-.828.4,1.527,1.527,0,0,1-1.044.252,0.294,0.294,0,0,1-.072.216,0.8,0.8,0,0,0-.648.432,1.514,1.514,0,0,0-1.08.5,3.533,3.533,0,0,0-1.908.792,3.71,3.71,0,0,1-2.052.792c-0.192,0-.288.024-0.288,0.072a16.9,16.9,0,0,1-2.916.18,10.254,10.254,0,0,1-2.988-.54,4.94,4.94,0,0,1-1.116-.432q-0.54-.289-1.044-0.576a2.588,2.588,0,0,1-1.332-1.224,7.042,7.042,0,0,1-.756-1.8,7.413,7.413,0,0,1-.18-2.52,11.5,11.5,0,0,1,.223-1.567l-1.483.7a3.316,3.316,0,0,1-.72.4c-0.288.12-.565,0.241-0.828,0.36s-0.588.252-.972,0.4a0.386,0.386,0,0,1-.36.108,2.729,2.729,0,0,0-.72.036,2.5,2.5,0,0,0-.576.324,2.014,2.014,0,0,1-.648.324q-1.152.145-2.2,0.324a3.345,3.345,0,0,0-1.4.468q-0.216.361-.324,0.5a0.887,0.887,0,0,1-.216.216,0.543,0.543,0,0,0-.18.216q-0.072.145-.288,0.5-0.145-.216-0.108-0.108a1.1,1.1,0,0,1,.036.324,3.767,3.767,0,0,1-.684,1.152,6.874,6.874,0,0,0-.756,1.008,0.692,0.692,0,0,0-.4.252c-0.169.168-.252,0.227-0.252,0.18a1.352,1.352,0,0,1-.864.72,1.373,1.373,0,0,0-.864.5c-0.1-.1-0.156-0.1-0.18,0s-0.084.1-.18,0a0.509,0.509,0,0,1-.432.288,12.876,12.876,0,0,1-4.608.36l0.072-.072a0.356,0.356,0,0,0-.36-0.072,0.815,0.815,0,0,1-.36.072q-0.288-.216-0.468-0.36a1.247,1.247,0,0,0-.54-0.216,3.369,3.369,0,0,1-1.584-1.944,0.833,0.833,0,0,0-.252-0.432,0.332,0.332,0,0,1-.036-0.5,2.315,2.315,0,0,1-.4-1.116,2.452,2.452,0,0,1,.252-1.476,11.406,11.406,0,0,1,.648-2.88q0.576-1.3.936-2.052t0.684-1.4a1.888,1.888,0,0,1,.4-0.648c0,0.1.036,0.036,0.108-.18a1.2,1.2,0,0,1,.252-0.468,18.262,18.262,0,0,1,1.224-1.944,16.478,16.478,0,0,1,1.476-1.8A15.222,15.222,0,0,1,51.088,31.6a3.8,3.8,0,0,1,1.224-.72l1.3-.792a1.092,1.092,0,0,0,.648.072,2.667,2.667,0,0,0,.36-0.144,0.59,0.59,0,0,1,.252-0.072,0.434,0.434,0,0,1,.252.288h0.216c0-.047.047-0.024,0.144,0.072s0.144,0.072.144-.072a0.417,0.417,0,0,1,.432.18,0.234,0.234,0,0,0,.216.18c-0.048.1-.036,0.108,0.036,0.036s0.108-.083.108-0.036a0.943,0.943,0,0,1,.72-0.108,4.093,4.093,0,0,1,.432.252c0.1,0.048.1,0.108,0,.18s-0.1.133,0,.18c0.24,0,.335-0.072.288-0.216a1.75,1.75,0,0,1,.9.5,4.155,4.155,0,0,0,.9.72,0.176,0.176,0,0,0,0,.216,0.509,0.509,0,0,0,.36.216H60.16l-0.072-.216L59.656,32.1q0-.216.5,0.144,0.071-.359.216,0.4a11.788,11.788,0,0,1,.144,2.088,22.488,22.488,0,0,1-.216,2.952A9.19,9.19,0,0,1,59.44,40.6a7.549,7.549,0,0,0,2.088-.36l0.936-.36a8.756,8.756,0,0,0,1.3-.4q0.648-.251,1.3-0.54l1.512-.576,1.08-.432q0.719-.287,1.4-0.576c0.049-.02.08-0.048,0.127-0.069,0.112-.218.237-0.423,0.341-0.651a2.075,2.075,0,0,0,.792-1.152l0.144-.072a26.354,26.354,0,0,1,2.016-2.556,14.431,14.431,0,0,1,2.448-2.124c0-.1.036-0.144,0.108-0.144s0.108-.024.108-0.072a3.078,3.078,0,0,1,.936-0.54,5.609,5.609,0,0,0,1.08-.54,3.356,3.356,0,0,0,.648-0.5,0.992,0.992,0,0,1,.864-0.216,1.641,1.641,0,0,1,.684.324,1.606,1.606,0,0,0,.684.324,0.413,0.413,0,0,0,.4.072,0.894,0.894,0,0,1,.324-0.072c0.1,0.1.191,0.2,0.288,0.324a0.609,0.609,0,0,0,.5.18q0.359,0.577.864,1.332a3.113,3.113,0,0,1,.5,1.764,2.166,2.166,0,0,0-.216,1.512,4.071,4.071,0,0,0-.576,1.26,5.749,5.749,0,0,1-.5,1.26,0.252,0.252,0,0,1-.216.036,0.26,0.26,0,0,0-.216.036A0.165,0.165,0,0,1,81,36.963a0.126,0.126,0,0,0-.108-0.108v0.216a0.765,0.765,0,0,1-.288-0.36,1.163,1.163,0,0,1-1.044-.54,1.868,1.868,0,0,1-.684-1.188l0.288-.792q0.359-.791.756-1.548a3.178,3.178,0,0,0,.4-1.476,4.63,4.63,0,0,0-2.628,1.584,14.773,14.773,0,0,1-2.2,2.232c0,0.1-.012.144-0.036,0.144s-0.036.048-.036,0.144a9.387,9.387,0,0,0-2.376,3.1q-0.864,1.8-1.656,3.672-0.073.577-.144,1.26a12.628,12.628,0,0,0-.072,1.332A8.241,8.241,0,0,0,71.536,46a1.358,1.358,0,0,0,1.08,1.008,4.331,4.331,0,0,0,3.06.036,20.846,20.846,0,0,1,2.772-.9q2.231-1.007,4.176-1.836a24.46,24.46,0,0,0,3.816-2.052h0.216q1.007-.719,1.98-1.368t1.98-1.44a4.052,4.052,0,0,0,1.584-1.08,3.993,3.993,0,0,1,1.656-1.08,0.673,0.673,0,0,1,.36-0.5c0.047-.1.06-0.144,0.036-0.144s-0.012-.024.036-0.072L94.5,36.639V36.423a0.447,0.447,0,0,0,.468-0.324,0.869,0.869,0,0,1,.324-0.468L95.368,35.7a2.837,2.837,0,0,1,.36-0.432,1.628,1.628,0,0,1,.289-0.16c0.3-.557.595-1.1,0.862-1.64a10.256,10.256,0,0,0,.648-0.864,2.251,2.251,0,0,0,.36-0.936H98.03A0.691,0.691,0,0,1,99,31.131a12.733,12.733,0,0,1,1.62.468,0.655,0.655,0,0,1,.432.4,1.965,1.965,0,0,1,.072.54,0.207,0.207,0,0,0-.108.252,0.49,0.49,0,0,1-.036.324,5.612,5.612,0,0,0-.72,1.656,5.616,5.616,0,0,1-.72,1.656,0.535,0.535,0,0,1-.18.216,0.543,0.543,0,0,0-.18.216,3.4,3.4,0,0,0-.252.828,3.372,3.372,0,0,1-.468,1.116q-0.577,1.153-1.008,2.16T96.59,43.191a16.676,16.676,0,0,1-.468,1.944,2.416,2.416,0,0,0,.324,1.872,15.817,15.817,0,0,0,2.916-1.044q1.259-.611,2.628-1.332l1.944-1.44,0.576-.36,2.3-1.728,1.944-1.512a7.73,7.73,0,0,1,.72-0.468,7.512,7.512,0,0,0,.72-0.468q0.72-.575,1.152-0.9t1.152-.828a1.041,1.041,0,0,1,.324-0.324c0.12-.072.276-0.155,0.468-0.252l0.5-.36a0.927,0.927,0,0,1,.684-0.5,0.9,0.9,0,0,0,.684-0.648c0.192,0.048.288,0,.288-0.144,0.018,0.007.021,0.017,0.037,0.024a16.49,16.49,0,0,1,1.439-1.752,15.257,15.257,0,0,1,1.476-1.368,3.813,3.813,0,0,1,1.224-.72l1.3-.792a1.092,1.092,0,0,0,.648.072,2.63,2.63,0,0,0,.36-0.144,0.591,0.591,0,0,1,.252-0.072,0.433,0.433,0,0,1,.252.288h0.216c0-.047.048-0.024,0.144,0.072s0.144,0.072.144-.072a0.417,0.417,0,0,1,.432.18,0.235,0.235,0,0,0,.216.18c-0.048.1-.036,0.108,0.036,0.036s0.108-.083.108-0.036a0.943,0.943,0,0,1,.72-0.108,4.093,4.093,0,0,1,.432.252c0.1,0.048.1,0.108,0,.18s-0.1.133,0,.18q0.36,0,.288-0.216a1.749,1.749,0,0,1,.9.5,4.172,4.172,0,0,0,.9.72,0.177,0.177,0,0,0,0,.216,0.512,0.512,0,0,0,.36.216h0.144l-0.072-.216-0.432-.216q0-.216.5,0.144,0.072-.359.216,0.4a11.759,11.759,0,0,1,.144,2.088,22.488,22.488,0,0,1-.216,2.952,9.19,9.19,0,0,1-.864,2.916,7.547,7.547,0,0,0,2.088-.36l0.936-.36a8.756,8.756,0,0,0,1.3-.4q0.648-.251,1.3-0.54l1.512-.576,1.08-.432q0.72-.287,1.4-0.576a6.05,6.05,0,0,0,1.188-.648l1.656-1.152,0.144-.072,0.288-.144a1.523,1.523,0,0,0,.36-0.288q0.288-.216.756-0.5t0.936-.54q0.468-.251.828-0.468a0.808,0.808,0,0,0,.36-0.288l0.288,0.648c0.144-.144.216-0.168,0.216-0.072A1.161,1.161,0,0,1,143.21,34.3Zm-91.8,7.524q-0.685-1.223-1.188-2.232a1.978,1.978,0,0,0-.576.468,5.244,5.244,0,0,1-.648.612l-0.072.072a0.8,0.8,0,0,0-.072.36v0.072a0.2,0.2,0,0,1-.072-0.144,0.064,0.064,0,0,0,.072-0.072V40.887a0.208,0.208,0,0,0-.072.144v0.144h0.072a2.69,2.69,0,0,0-.648,1.152c-0.1.288-.192,0.565-0.288,0.828a2.043,2.043,0,0,0-.144.684,6.811,6.811,0,0,0-.18,1.332,13.992,13.992,0,0,0,0,1.44,4.166,4.166,0,0,0,.216,1.188,0.77,0.77,0,0,0,.54.576c0.047,0,.18-0.011.4-0.036l0.684-.072a5.672,5.672,0,0,0,.684-0.108,2.152,2.152,0,0,0,.468-0.144,13.2,13.2,0,0,0,1.872-1.08,4.12,4.12,0,0,0,.864-0.828q0.287-.395.54-0.756a3.768,3.768,0,0,1,.828-0.792l0.288-.936a3.921,3.921,0,0,0-.756-0.072,1.091,1.091,0,0,1-.612-0.144A3.234,3.234,0,0,1,51.412,41.823Zm5.364-9.216a3.688,3.688,0,0,0-.756.576q-0.469.432-.972,0.972t-0.972,1.08a9.738,9.738,0,0,0-.756.972c0.047,0,.072.012,0.072,0.036s0.024,0.036.072,0.036a0.258,0.258,0,0,1-.252.144,0.448,0.448,0,0,0-.324.144,0.372,0.372,0,0,0-.108.288,0.1,0.1,0,0,0,.072.072,0.107,0.107,0,0,1,.072.036,0.584,0.584,0,0,1-.036.324,8.859,8.859,0,0,0,.288,1.008,6.31,6.31,0,0,0,.612,1.3,4.7,4.7,0,0,0,.936,1.116,1.4,1.4,0,0,0,1.26.324q0.216-.648.54-1.98t0.54-2.7a13.31,13.31,0,0,0,.18-2.484A1.274,1.274,0,0,0,56.776,32.607Zm49.678,11.952-0.288.36a0.479,0.479,0,0,0,.288-0.108C106.55,44.739,106.55,44.656,106.454,44.559Zm12.276-2.736q-0.684-1.223-1.188-2.232a1.991,1.991,0,0,0-.576.468,5.2,5.2,0,0,1-.648.612l-0.072.072a0.8,0.8,0,0,0-.072.36v0.072a0.205,0.205,0,0,1-.072-0.144,0.063,0.063,0,0,0,.072-0.072V40.887a0.21,0.21,0,0,0-.072.144v0.144h0.072a2.69,2.69,0,0,0-.648,1.152c-0.1.288-.192,0.565-0.288,0.828a2.06,2.06,0,0,0-.144.684,6.888,6.888,0,0,0-.18,1.332,14.4,14.4,0,0,0,0,1.44,4.187,4.187,0,0,0,.216,1.188,0.772,0.772,0,0,0,.54.576c0.048,0,.18-0.011.4-0.036l0.684-.072a5.663,5.663,0,0,0,.684-0.108,2.139,2.139,0,0,0,.468-0.144,13.158,13.158,0,0,0,1.872-1.08,4.105,4.105,0,0,0,.864-0.828q0.288-.395.54-0.756a3.791,3.791,0,0,1,.828-0.792l0.288-.936a3.91,3.91,0,0,0-.756-0.072,1.092,1.092,0,0,1-.612-0.144A3.235,3.235,0,0,1,118.73,41.823Zm5.364-9.216a3.7,3.7,0,0,0-.756.576q-0.468.432-.972,0.972t-0.972,1.08a9.951,9.951,0,0,0-.756.972c0.048,0,.072.012,0.072,0.036s0.024,0.036.072,0.036a0.257,0.257,0,0,1-.252.144,0.449,0.449,0,0,0-.324.144,0.378,0.378,0,0,0-.108.288,0.1,0.1,0,0,0,.072.072,0.105,0.105,0,0,1,.072.036,0.574,0.574,0,0,1-.036.324,9.009,9.009,0,0,0,.288,1.008,6.326,6.326,0,0,0,.612,1.3,4.713,4.713,0,0,0,.936,1.116,1.4,1.4,0,0,0,1.26.324q0.216-.648.54-1.98t0.54-2.7a13.284,13.284,0,0,0,.18-2.484A1.272,1.272,0,0,0,124.094,32.607ZM92.342,42.255c0,0.087-.022.128-0.061,0.136A0.534,0.534,0,0,0,92.342,42.255Zm11.736-15.732c0.048,0.025.024,0.084-.072,0.18a1.789,1.789,0,0,0-.54.72,0.574,0.574,0,0,1-.684.36,1.176,1.176,0,0,0-.576.5,0.746,0.746,0,0,1-.432-0.072L101.558,28a0.394,0.394,0,0,0-.432.216,6.566,6.566,0,0,1-1.044-.432q-0.4-.216-0.9-0.432a4.434,4.434,0,0,1,.18-1.26,0.788,0.788,0,0,1,1.044-.468,0.405,0.405,0,0,1,.216-0.144,0.206,0.206,0,0,0,.144-0.072,4.694,4.694,0,0,1,1.512.36,4.787,4.787,0,0,0,1.584.36q-0.144.289,0.288,0.288Q104.006,26.488,104.078,26.523ZM12.532,41.967c0.024-.144.083-0.168,0.18-0.072a0.147,0.147,0,0,1-.036.108,0.146,0.146,0,0,0-.036.108C12.543,42.159,12.507,42.111,12.532,41.967Zm0.252-.936a1.382,1.382,0,0,1,.432.072,0.283,0.283,0,0,1,.216.288A1.24,1.24,0,0,1,12.784,41.031Zm1.368,1.656a0.492,0.492,0,0,1,.036-0.216,0.5,0.5,0,0,0,.036-0.216,2.287,2.287,0,0,1,.216.4,0.432,0.432,0,0,0,.288.252c0,0.144-.1.192-0.288,0.144A0.291,0.291,0,0,0,14.152,42.687Zm6.768,3.456a0.5,0.5,0,0,1,.324-0.036c0.119,0.025.132,0.108,0.036,0.252a0.182,0.182,0,0,1-.18-0.072A0.4,0.4,0,0,0,20.92,46.143Zm0.864,0c-0.1-.1-0.1-0.18,0-0.252a0.2,0.2,0,0,1,.288.036A0.388,0.388,0,0,1,21.784,46.143Zm2.232,1.872c-0.1,0-.144-0.024-0.144-0.072A0.213,0.213,0,0,0,23.8,47.8c0.047-.1.119-0.108,0.216-0.036A0.146,0.146,0,0,1,24.016,48.015Zm0-1.584L24.3,46.575H24.088v0.144H23.944a0.282,0.282,0,0,1,.036-0.18A0.147,0.147,0,0,0,24.016,46.431Zm4.5,2.592a0.282,0.282,0,0,0-.252-0.072,0.24,0.24,0,0,1,.324-0.036,0.249,0.249,0,0,1,.108.324A1.024,1.024,0,0,1,28.516,49.023Zm1.188,0.5a0.184,0.184,0,0,1-.18-0.072,0.184,0.184,0,0,0-.18-0.072c0.047-.144.132-0.18,0.252-0.108A0.183,0.183,0,0,1,29.7,49.527Zm0.18-.468c0.024,0.168-.036.2-0.18,0.108V48.951C29.8,48.854,29.859,48.89,29.884,49.059Zm0.18,0.54a0.091,0.091,0,0,0,0-.144c-0.048-.048-0.025-0.12.072-0.216a0.651,0.651,0,0,0,.36.18c0.144,0.024.191,0.083,0.144,0.18a1.143,1.143,0,0,0-.288.036A0.412,0.412,0,0,1,30.064,49.6Zm1.008-.18a2.142,2.142,0,0,1,.216.18,0.213,0.213,0,0,1-.072.144l-0.36-.216Q30.927,49.311,31.072,49.419Zm0.72,0.468q0-.145.108-0.108t0.108-.108a0.723,0.723,0,0,0,.324.072,0.145,0.145,0,0,1,.18.144c0,0.1-.1.144-0.288,0.144A0.587,0.587,0,0,1,31.792,49.887ZM33.3,50.823a0.642,0.642,0,0,1-.324.18,0.344,0.344,0,0,1-.324-0.108A0.557,0.557,0,0,1,33.3,50.823ZM47.776,15.075c-0.048.12-.1,0.252-0.144,0.4a2.952,2.952,0,0,1-.144.36c-0.048.1-.1,0.192-0.144,0.288q-0.361.721-.72,1.332a2.8,2.8,0,0,1-.936.972,4.392,4.392,0,0,1-.972,1.764,13.786,13.786,0,0,0-1.26,1.62l-0.288.5-0.5.36-2.88,2.52a3.288,3.288,0,0,1-.36.216,2.672,2.672,0,0,1-.36.144l-0.648.5A11.415,11.415,0,0,1,36.4,27.423Q35.32,28,34.168,28.5a1.745,1.745,0,0,0-.792.36,1.755,1.755,0,0,0-.576.432,5.721,5.721,0,0,1-1.044.468,2.987,2.987,0,0,0-.972.54,0.293,0.293,0,0,0-.072.216,0.127,0.127,0,0,1-.144.144,0.333,0.333,0,0,0-.18-0.18,1.845,1.845,0,0,1-.252-0.108,0.545,0.545,0,0,1,.288-0.252c0.1-.024.119-0.108,0.072-0.252a0.119,0.119,0,0,0-.144-0.036,0.251,0.251,0,0,1-.216-0.036,0.329,0.329,0,0,0-.144.36H29.848a0.293,0.293,0,0,0-.072.216,6.83,6.83,0,0,1-1.188.72,11.46,11.46,0,0,0-1.188.648,0.3,0.3,0,0,0-.288-0.108,1.26,1.26,0,0,0-.36.18q-0.721.361-1.476,0.756a9.8,9.8,0,0,0-1.332.828,0.179,0.179,0,0,0-.216,0,0.293,0.293,0,0,1-.216.072q-1.944,1.225-4.1,2.3A20.065,20.065,0,0,0,15.52,38.3c0.047,0.048.083,0.036,0.108-.036s0.036-.083.036-0.036a0.23,0.23,0,0,1-.144.216,0.141,0.141,0,0,1-.216-0.072,4.476,4.476,0,0,0-.792.5,6.612,6.612,0,0,1-.72.5q-0.432.289-.792,0.54a2,2,0,0,0-.576.612,1.972,1.972,0,0,0,.36.432,2.746,2.746,0,0,0-.72.5c0.047,0,.072.072,0.072,0.216a0.323,0.323,0,0,1-.252.036c-0.072-.024-0.084-0.06-0.036-0.108l-0.144.144a0.821,0.821,0,0,0-.144.216c-0.048,0,.024.048,0.216,0.144a0.294,0.294,0,0,0,.072-0.216,3.594,3.594,0,0,0,1.44.864,5.056,5.056,0,0,1,1.512.792,0.333,0.333,0,0,1,.18.18,0.322,0.322,0,0,0,.18.18,0.414,0.414,0,0,0,.144-0.288,0.293,0.293,0,0,1,.072-0.216,1.906,1.906,0,0,0,.36.5,0.6,0.6,0,0,0,.576.144,0.665,0.665,0,0,0,.648.468,1.537,1.537,0,0,1,.864.324,0.213,0.213,0,0,1,.072.144,0.2,0.2,0,0,0,.144.144c0.1,0,.132-0.024.108-0.072a0.116,0.116,0,0,1,.036-0.144,0.6,0.6,0,0,0,.324.252,1.272,1.272,0,0,1,.4.252,0.333,0.333,0,0,1,.18.18,0.124,0.124,0,0,0,.108.108,0.142,0.142,0,0,0,.216-0.072q0.071-.143.216,0v0.144c0.1,0.048.144,0.025,0.144-.072a0.452,0.452,0,0,0,.324.36,3.255,3.255,0,0,1,.54.216l0.792,0.288V46.287q0.216,0.216.288,0a0.165,0.165,0,0,0,.108.18,0.126,0.126,0,0,1,.108.108,0.091,0.091,0,0,1,0,.144c-0.048.048-.048,0.072,0,0.072,0.1,0.048.144,0.048,0.144,0s0.047-.072.144-0.072a2.4,2.4,0,0,0,.54.4,5.433,5.433,0,0,1,.612.4c0.24,0,.36.072,0.36,0.216-0.1.1-.156,0.1-0.18,0s-0.084-.119-0.18-0.072a0.621,0.621,0,0,0,.252.252,0.14,0.14,0,0,1,.036.252c-0.048,0-.061-0.036-0.036-0.108s0.011-.083-0.036-0.036c-0.1,0-.133.025-0.108,0.072s-0.012.1-.108,0.144a0.4,0.4,0,0,0-.252-0.144,0.391,0.391,0,0,1-.252-0.144,0.169,0.169,0,0,0,.144.18,1.524,1.524,0,0,1,.288.108,0.772,0.772,0,0,0,.036.252c0.024,0.072.083,0.083,0.18,0.036,0.047-.048.036-0.084-0.036-0.108s-0.084-.06-0.036-0.108a0.241,0.241,0,0,1,.324-0.036,0.753,0.753,0,0,0,.4.108,1.3,1.3,0,0,0,.036-0.54A0.78,0.78,0,0,1,24.3,47.3a0.617,0.617,0,0,0,.324.18,0.642,0.642,0,0,1,.324.18c0,0.048-.012.072-0.036,0.072s-0.036.048-.036,0.144a0.779,0.779,0,0,1,.576.216,0.777,0.777,0,0,0,.576.216,0.091,0.091,0,0,0,0-.144,0.175,0.175,0,0,1,0-.216,0.27,0.27,0,0,1,.4.072,0.269,0.269,0,0,0,.4.072q-0.145.289,0.036,0.4a1.151,1.151,0,0,0,.432.144c0.168,0.024.324,0.047,0.468,0.072a0.347,0.347,0,0,1,.288.252c-0.048.1-.108,0.108-0.18,0.036s-0.133-.084-0.18-0.036a0.23,0.23,0,0,0,.144.216,0.29,0.29,0,0,1,.144.288,0.151,0.151,0,0,1-.036.108,0.142,0.142,0,0,0-.036.108h0.288a0.179,0.179,0,0,0,0-.216,0.175,0.175,0,0,1,0-.216q0.359,0,.216.216a0.727,0.727,0,0,0-.144.288,0.433,0.433,0,0,0,.432-0.072c0-.048-0.036-0.072-0.108-0.072s-0.061-.048.036-0.144a0.064,0.064,0,0,0,.072.072,0.594,0.594,0,0,0,.072-0.252,0.241,0.241,0,0,1,.072-0.18,0.951,0.951,0,0,0,.036.216,1.2,1.2,0,0,1,.036.288c0,0.047-.012.072-0.036,0.072s-0.036.024-.036,0.072v0.072a2.368,2.368,0,0,0,.576.144,0.127,0.127,0,0,0-.144-0.144,0.127,0.127,0,0,1-.144-0.144,0.577,0.577,0,0,1,.576,0,0.554,0.554,0,0,1,.216.072,0.2,0.2,0,0,1,.144.144,0.18,0.18,0,0,1-.288,0c-0.1-.1-0.144-0.048-0.144.144a0.131,0.131,0,0,0,.18,0c0.072-.048.108-0.025,0.108,0.072s-0.036.132-.108,0.108-0.108.011-.108,0.108a5.152,5.152,0,0,0,1.3.288,5.123,5.123,0,0,1,1.3.288,0.387,0.387,0,0,1-.324,0,0.173,0.173,0,0,0-.252.072,7.324,7.324,0,0,0,1.908.216,2.225,2.225,0,0,0,1.62-.5c-0.048-.048-0.084-0.036-0.108.036s-0.061.06-.108-0.036a0.228,0.228,0,0,1,.144-0.216c0.1-.048.119-0.1,0.072-0.144a0.726,0.726,0,0,0-.792.216,1.324,1.324,0,0,1-.324-0.252,0.459,0.459,0,0,0-.468-0.108,0.182,0.182,0,0,0-.18.072,0.186,0.186,0,0,1-.18.072,0.191,0.191,0,0,1-.144-0.108,0.2,0.2,0,0,0-.144-0.108A0.257,0.257,0,0,0,32.764,50a0.333,0.333,0,0,1-.252-0.036l0.144-.288a1.076,1.076,0,0,0,1.08.18,2.1,2.1,0,0,1,1.152-.036,0.675,0.675,0,0,0,.288.216,0.213,0.213,0,0,0,.144-0.072l0.144-.144a3.458,3.458,0,0,1,.684-0.072,0.646,0.646,0,0,0,.468-0.144,0.5,0.5,0,0,0,.036-0.324,0.483,0.483,0,0,1,.036-0.324,2.414,2.414,0,0,1,.288.36,0.559,0.559,0,0,0,.5.216,0.128,0.128,0,0,1-.144.144,0.127,0.127,0,0,0-.144.144,0.282,0.282,0,0,0,.288.216,4.9,4.9,0,0,1-.72,1.332,4.039,4.039,0,0,1-1.08,1.044,1.116,1.116,0,0,1-.432.144,0.114,0.114,0,0,0-.108.072,0.186,0.186,0,0,1-.18.072,1.386,1.386,0,0,0-.72.216,0.777,0.777,0,0,1-.72.072H33.16a0.323,0.323,0,0,0-.252-0.036,0.811,0.811,0,0,1-.252.036,2.152,2.152,0,0,1-.5-0.072,2.355,2.355,0,0,0-.576-0.072L30.5,52.7q-3.024-.648-5.94-1.44a31.108,31.108,0,0,1-5.436-2.016l-2.808-1.224L15.88,47.8,15.3,47.655a0.64,0.64,0,0,1-.432-0.36H14.728c0-.047-0.012-0.06-0.036-0.036s-0.036.012-.036-0.036H14.44q-1.369-.5-2.664-1.08t-2.52-1.224A20.045,20.045,0,0,0,7.6,48.087,34.34,34.34,0,0,1,6.016,51.4a0.552,0.552,0,0,1-.18.216,0.527,0.527,0,0,0-.18.216,1.225,1.225,0,0,0-.072.5,4.123,4.123,0,0,1-.648,1.3A4,4,0,0,0,4.288,55Q4,55.79,3.6,56.619a6.314,6.314,0,0,0-.54,1.764,4.907,4.907,0,0,0-1.728.72A1.589,1.589,0,0,1,.76,58.815l-0.216-.288a1.255,1.255,0,0,1-.36-0.36c-0.047-.1-0.1-0.192-0.144-0.288V57.087q0.073-.577.216-1.26T0.544,54.5q0.5-1.728,1.044-3.42T2.7,47.8q0.5-1.439,1.008-2.772t0.936-2.772a4.506,4.506,0,0,1,.36-1.152l0.72-2.16q1.08-2.663,2.232-5.256t2.232-5.256q0.216-.575.36-1.116t0.36-1.116l0.936-2.088q0.143-.359.324-0.792c0.119-.288.227-0.551,0.324-0.792a0.606,0.606,0,0,0,0-.576,1.517,1.517,0,0,0,.4-0.72,6.069,6.069,0,0,1,.252-0.792q0.791-2.015,1.44-4.032t1.44-3.888a6.2,6.2,0,0,0,.252-0.792c0.072-.288.155-0.576,0.252-0.864a5.534,5.534,0,0,0,.216-0.9q0.071-.467.144-0.972a0.878,0.878,0,0,0,.36-0.144,0.42,0.42,0,0,1,.288-0.072A0.442,0.442,0,0,0,17.788,8.7c0.072-.047.132-0.024,0.18,0.072a0.478,0.478,0,0,1,.216.216,0.784,0.784,0,0,0,.144.216,0.251,0.251,0,0,0,.216.036,0.5,0.5,0,0,1,.216-0.036,11.185,11.185,0,0,1,2.052.468,1.861,1.861,0,0,1,1.26,1.332,2.228,2.228,0,0,1,0,.792,3.862,3.862,0,0,1-.216.792A7.983,7.983,0,0,1,20.7,15.039a8.542,8.542,0,0,1-.468.936c-0.169.288-.324,0.552-0.468,0.792a1.112,1.112,0,0,0-.216.288c-0.048.1-.1,0.192-0.144,0.288a0.487,0.487,0,0,0-.144.36,0.811,0.811,0,0,1-.072.36q-0.361.793-.684,1.62a8.276,8.276,0,0,0-.468,1.764,4.184,4.184,0,0,1-.18.648q-0.108.289-.252,0.648-0.432.937-.9,1.872a8.127,8.127,0,0,0-.684,1.944,1.934,1.934,0,0,1-.252.648q-0.181.289-.324,0.576-0.577,1.225-1.152,2.484t-1.152,2.556q-0.432,1.009-.828,2.16t-0.9,2.3l-0.288.648a0.63,0.63,0,0,0,.072.288,0.311,0.311,0,0,1,0,.288q0.935-.791,1.908-1.584t1.98-1.584a3.111,3.111,0,0,1,.324-0.252,0.893,0.893,0,0,1,.324-0.18c0.1,0,.132.025,0.108,0.072s0.011,0.048.108,0a0.23,0.23,0,0,0,.216-0.144,1.112,1.112,0,0,1,.216-0.288l0.216-.108a1.026,1.026,0,0,0,.216-0.18l0.432-.288a0.821,0.821,0,0,0,.216-0.144,0.84,0.84,0,0,1,.216-0.144l1.224-.72,1.008-.432,3.528-2.16q1.439-.719,2.772-1.44t2.7-1.512l0.792-.5,0.288-.432a0.414,0.414,0,0,1,.288-0.144,0.264,0.264,0,0,1,.144-0.216,0.91,0.91,0,0,1,.36-0.216,0.891,0.891,0,0,0,.36-0.216,10.926,10.926,0,0,0,1.548-.864q0.756-.5,1.476-0.936l0.72-.432a6.612,6.612,0,0,0,.72-0.5l0.72-.576q0.648-.5,1.368-0.972a7.964,7.964,0,0,0,1.3-1.044l2.52-2.376,0.792-.936a1.252,1.252,0,0,0,.468-0.4,4.141,4.141,0,0,0,.324-0.54l0.5-.792,0.144-.432a2.125,2.125,0,0,1,.324-0.576,2.663,2.663,0,0,0,.324-0.5,2.889,2.889,0,0,0,.36-0.936,6.836,6.836,0,0,0,.072-1.08,1.423,1.423,0,0,0,.036-0.54,3.7,3.7,0,0,1-.036-0.54,0.956,0.956,0,0,0-.036-0.576c-0.072-.191-0.133-0.36-0.18-0.5A3.606,3.606,0,0,0,43.42,7.983q-0.829-.648-1.62-1.3a0.655,0.655,0,0,0-.36-0.18A1.251,1.251,0,0,1,41.08,6.4a14.485,14.485,0,0,0-3.564-1.152q-1.909-.359-4.14-0.648a14.818,14.818,0,0,0-2.088-.144,17.844,17.844,0,0,1-2.232-.144,17.586,17.586,0,0,0-2.232,0,4.745,4.745,0,0,0-1.152.144,9.464,9.464,0,0,1-1.152.216q-2.089.361-3.852,0.828a13.615,13.615,0,0,0-3.276,1.332,7.061,7.061,0,0,0-.756.432q-0.324.216-.684,0.432a3.041,3.041,0,0,0-.792.576,0.414,0.414,0,0,1-.288.144,0.414,0.414,0,0,0-.288.144c-0.048.1-.1,0.133-0.144,0.108A0.119,0.119,0,0,0,14.3,8.7a0.432,0.432,0,0,0-.288.288,0.726,0.726,0,0,1-.4.144,0.448,0.448,0,0,0-.324.144,1.5,1.5,0,0,1-.468.324,5.188,5.188,0,0,0-.612.324,2.35,2.35,0,0,1-.576.324,0.69,0.69,0,0,1-.576-0.036,3.636,3.636,0,0,1-.864-0.864,4.31,4.31,0,0,1-.5-1.368,0.723,0.723,0,0,1-.144-0.4V7.263l0.5-.5a7.932,7.932,0,0,1,1.764-1.332q0.972-.54,1.98-1.116,0.287-.143.54-0.288a5.037,5.037,0,0,1,.612-0.288,33.48,33.48,0,0,1,5.364-1.764A41.973,41.973,0,0,1,26.392,1c0.288,0,.576-0.011.864-0.036s0.576-.036.864-0.036h0.792l2.52-.144h0.432l4.752,0.864a0.707,0.707,0,0,0,.324.072,0.729,0.729,0,0,1,.324.072l0.288,0.216H37.84a0.811,0.811,0,0,1,.252.036,0.323,0.323,0,0,0,.252-0.036,0.485,0.485,0,0,0,.36.144,0.491,0.491,0,0,1,.36.144,2.326,2.326,0,0,1,.216.288A0.149,0.149,0,0,0,39.5,2.547c0.047-.072.144-0.06,0.288,0.036a0.394,0.394,0,0,1,.288.18,0.878,0.878,0,0,0,.288.252h0.288a1.905,1.905,0,0,1,.684.288,1.331,1.331,0,0,0,.756.216A12.851,12.851,0,0,0,43.672,4.6a4.683,4.683,0,0,1,1.44,1.3,1.418,1.418,0,0,1,.4.432q0.179,0.289.324,0.5A12.267,12.267,0,0,1,46.984,8.7a2.178,2.178,0,0,1,.576.936,9.243,9.243,0,0,1,.576,2.484,6.8,6.8,0,0,1-.216,2.628C47.871,14.848,47.823,14.956,47.776,15.075ZM16.96,45.783H16.888l-0.072.072A0.208,0.208,0,0,0,16.96,45.783Zm-1.548-1.224c0.024,0,.036-0.024.036-0.072H15.52a0.063,0.063,0,0,1-.072-0.072,0.147,0.147,0,0,1-.036.108,0.146,0.146,0,0,0-.036.108C15.376,44.584,15.387,44.559,15.412,44.559ZM14.548,38.4a0.648,0.648,0,0,0,.324-0.54l-0.072.072h0l-0.72.72A2.9,2.9,0,0,1,14.548,38.4Zm0.468-.9V37.431c0,0.048-.012.072-0.036,0.072s-0.036.025-.036,0.072a0.486,0.486,0,0,1-.432.216q0.359,0.145.576-.36A0.064,0.064,0,0,0,15.016,37.5Zm2.3-1.368-0.576.216,0.648-.216H17.32Zm0.5-.5a0.147,0.147,0,0,0-.108.036,0.146,0.146,0,0,1-.108.036h0.144l0.072-.072h0l0.072-.072Zm1.5-.792-0.017.015,0.029-.015H19.324Zm-0.132.072a0.208,0.208,0,0,1-.144.072l-0.216.216-0.792.576-0.432.216-0.144.144a6.344,6.344,0,0,0,1.044-.648,8.588,8.588,0,0,1,.972-0.648A0.638,0.638,0,0,1,19.192,34.911Zm3.1-1.44-0.072.072a0.075,0.075,0,0,1,.028.087,0.272,0.272,0,0,0,.044-0.014A0.091,0.091,0,0,0,22.288,33.471ZM14.512,38.4a4.093,4.093,0,0,0-.432.252l0.72-.72A0.616,0.616,0,0,1,14.512,38.4Z"/>
</svg>
