<svg xmlns="http://www.w3.org/2000/svg" width="205" height="34" viewBox="0 0 205 34">
  <defs>
    <style>
      .cls-1 {
        fill: #d2b066;
        fill-rule: evenodd;
      }
    </style>
  </defs>
  <path id="star" class="cls-1" d="M193.4,9.781l9.342,1.379A2.082,2.082,0,0,1,203.9,14.7l-6.774,6.649,1.6,9.538a2.083,2.083,0,0,1-3.029,2.186l-8.347-4.457-8.34,4.457a2.081,2.081,0,0,1-3.03-2.186l1.6-9.538L170.8,14.7a2.092,2.092,0,0,1-.513-2.134,2.068,2.068,0,0,1,1.672-1.405L181.3,9.781l4.186-8.61a2.076,2.076,0,0,1,3.738,0Zm-42,0,9.342,1.379A2.082,2.082,0,0,1,161.9,14.7l-6.774,6.649,1.6,9.538a2.083,2.083,0,0,1-3.029,2.186l-8.347-4.457-8.34,4.457a2.093,2.093,0,0,1-2.2-.15,2.07,2.07,0,0,1-.832-2.036l1.6-9.538L128.8,14.7a2.092,2.092,0,0,1-.513-2.134,2.068,2.068,0,0,1,1.672-1.405L139.3,9.781l4.186-8.61a2.076,2.076,0,0,1,3.738,0Zm-42,0,9.342,1.379A2.082,2.082,0,0,1,119.9,14.7l-6.774,6.649,1.6,9.538a2.083,2.083,0,0,1-3.029,2.186l-8.347-4.457-8.34,4.457a2.08,2.08,0,0,1-3.029-2.186l1.6-9.538L86.8,14.7a2.093,2.093,0,0,1-.513-2.134,2.068,2.068,0,0,1,1.673-1.405L97.3,9.781l4.186-8.61a2.076,2.076,0,0,1,3.738,0Zm-42,0,9.341,1.379A2.081,2.081,0,0,1,77.9,14.7l-6.774,6.649,1.6,9.538A2.083,2.083,0,0,1,69.7,33.073l-8.347-4.457-8.34,4.457a2.08,2.08,0,0,1-3.029-2.186l1.6-9.538L44.8,14.7a2.093,2.093,0,0,1-.513-2.134,2.068,2.068,0,0,1,1.673-1.405L55.3,9.781l4.186-8.61a2.076,2.076,0,0,1,3.738,0Zm-44,0,9.341,1.379A2.081,2.081,0,0,1,33.9,14.7l-6.774,6.649,1.6,9.538A2.083,2.083,0,0,1,25.7,33.073l-8.347-4.457-8.34,4.457A2.08,2.08,0,0,1,5.98,30.887l1.6-9.538L0.8,14.7a2.093,2.093,0,0,1-.513-2.134,2.068,2.068,0,0,1,1.673-1.405L11.3,9.781l4.186-8.61a2.076,2.076,0,0,1,3.738,0Z"/>
</svg>
