<svg width="16" height="19" viewBox="0 0 16 19" fill="none" xmlns="http://www.w3.org/2000/svg">
<path d="M13.657 2.30475C10.533 -0.76825 5.46798 -0.76825 2.34398 2.30475C-0.780024 5.37775 -0.780024 10.3617 2.34398 13.4347L7.99998 18.9998L13.657 13.4347C16.781 10.3617 16.781 5.37875 13.657 2.30475ZM7.99998 10.4998C7.33198 10.4998 6.70498 10.2397 6.23198 9.76775C5.25698 8.79275 5.25698 7.20675 6.23198 6.23175C6.70398 5.75975 7.33198 5.49975 7.99998 5.49975C8.66798 5.49975 9.29598 5.75975 9.76798 6.23175C10.743 7.20675 10.743 8.79375 9.76798 9.76775C9.29598 10.2397 8.66798 10.4998 7.99998 10.4998Z" fill="white"/>
</svg>
