<svg width="25" height="25" viewBox="0 0 25 25" fill="none" xmlns="http://www.w3.org/2000/svg">
<path fill-rule="evenodd" clip-rule="evenodd" d="M24.2209 24.0996C23.6871 24.6334 22.8215 24.6334 22.2877 24.0996L1.02178 2.83366C0.48792 2.2998 0.48792 1.43425 1.02178 0.900392C1.55563 0.366536 2.42118 0.366536 2.95504 0.900392L24.2209 22.1663C24.7548 22.7002 24.7548 23.5657 24.2209 24.0996Z" fill="#00112C"/>
<path fill-rule="evenodd" clip-rule="evenodd" d="M1.02173 24.0996C1.55559 24.6334 2.42114 24.6334 2.95499 24.0996L24.2209 2.83367C24.7548 2.29981 24.7548 1.43426 24.2209 0.900402C23.687 0.366546 22.8215 0.366547 22.2876 0.900403L1.02173 22.1663C0.487874 22.7002 0.487874 23.5657 1.02173 24.0996Z" fill="#00112C"/>
</svg>
