<svg width="26" height="26" viewBox="0 0 26 26" fill="none" xmlns="http://www.w3.org/2000/svg">
<rect width="26" height="26" rx="10" fill="white"/>
<rect width="26" height="26" rx="10" fill="white"/>
<path d="M23.2143 0H2.78571C2.0469 0 1.33834 0.293494 0.815917 0.815917C0.293494 1.33834 0 2.0469 0 2.78571L0 23.2143C0 23.9531 0.293494 24.6617 0.815917 25.1841C1.33834 25.7065 2.0469 26 2.78571 26H10.7511V17.1606H7.09487V13H10.7511V9.82893C10.7511 6.22201 12.8984 4.22964 16.1873 4.22964C17.7624 4.22964 19.4095 4.51054 19.4095 4.51054V8.05071H17.5947C15.8066 8.05071 15.2489 9.16036 15.2489 10.2984V13H19.2406L18.6022 17.1606H15.2489V26H23.2143C23.9531 26 24.6617 25.7065 25.1841 25.1841C25.7065 24.6617 26 23.9531 26 23.2143V2.78571C26 2.0469 25.7065 1.33834 25.1841 0.815917C24.6617 0.293494 23.9531 0 23.2143 0Z" fill="#4267B2"/>
</svg>
