<svg width="26" height="26" viewBox="0 0 26 26" fill="none" xmlns="http://www.w3.org/2000/svg">
<rect width="26" height="26" rx="10" fill="white"/>
<rect width="26" height="26" rx="10" fill="white"/>
<path d="M15.7915 9.99375V14.1201C15.7915 14.2246 15.7103 14.3058 15.6058 14.3058H14.9442C14.8804 14.3058 14.8223 14.271 14.7933 14.2304L12.9013 11.6768V14.1259C12.9013 14.2304 12.8201 14.3116 12.7156 14.3116H12.054C11.9496 14.3116 11.8683 14.2304 11.8683 14.1259V9.99956C11.8683 9.89509 11.9496 9.81384 12.054 9.81384H12.7098C12.7679 9.81384 12.8317 9.84286 12.8607 9.89509L14.7527 12.4487V9.99956C14.7527 9.89509 14.8339 9.81384 14.9384 9.81384H15.6C15.7045 9.80804 15.7915 9.89509 15.7915 9.99375ZM11.0326 9.80804H10.371C10.2665 9.80804 10.1853 9.88929 10.1853 9.99375V14.1201C10.1853 14.2246 10.2665 14.3058 10.371 14.3058H11.0326C11.1371 14.3058 11.2183 14.2246 11.2183 14.1201V9.99375C11.2183 9.89509 11.1371 9.80804 11.0326 9.80804ZM9.43661 13.267H7.6317V9.99375C7.6317 9.88929 7.55045 9.80804 7.44599 9.80804H6.78438C6.67992 9.80804 6.59867 9.88929 6.59867 9.99375V14.1201C6.59867 14.1723 6.61608 14.2129 6.6509 14.2478C6.68572 14.2768 6.72635 14.3 6.77858 14.3H9.43081C9.53527 14.3 9.61652 14.2188 9.61652 14.1143V13.4527C9.61652 13.354 9.53527 13.267 9.43661 13.267ZM19.2737 9.80804H16.6214C16.5228 9.80804 16.4357 9.88929 16.4357 9.99375V14.1201C16.4357 14.2187 16.517 14.3058 16.6214 14.3058H19.2737C19.3781 14.3058 19.4594 14.2246 19.4594 14.1201V13.4585C19.4594 13.354 19.3781 13.2728 19.2737 13.2728H17.4687V12.5763H19.2737C19.3781 12.5763 19.4594 12.4951 19.4594 12.3906V11.7232C19.4594 11.6188 19.3781 11.5375 19.2737 11.5375H17.4687V10.8411H19.2737C19.3781 10.8411 19.4594 10.7598 19.4594 10.6554V9.99375C19.4536 9.89509 19.3723 9.80804 19.2737 9.80804ZM26 4.74153V21.2991C25.9942 23.8991 23.8643 26.0058 21.2585 26H4.7009C2.1009 25.9942 -0.0057916 23.8585 1.19621e-05 21.2585V4.7009C0.00581553 2.1009 2.14153 -0.0057916 4.74153 1.19621e-05H21.2991C23.8991 0.00581553 26.0058 2.13572 26 4.74153ZM22.425 11.8567C22.425 7.62009 18.1768 4.17278 12.9594 4.17278C7.74197 4.17278 3.49376 7.62009 3.49376 11.8567C3.49376 15.6522 6.85983 18.8326 11.4098 19.4362C12.5183 19.6741 12.3906 20.0804 12.1411 21.5719C12.1004 21.8098 11.9496 22.5062 12.9594 22.0826C13.9692 21.6589 18.4089 18.8732 20.3995 16.5866C21.7692 15.0777 22.425 13.5513 22.425 11.8567Z" fill="#00B900"/>
</svg>
