<svg width="33" height="23" viewBox="0 0 33 23" fill="none" xmlns="http://www.w3.org/2000/svg">
<path d="M9.75 11.375C12.8934 11.375 15.4375 8.83086 15.4375 5.6875C15.4375 2.54414 12.8934 0 9.75 0C6.60664 0 4.0625 2.54414 4.0625 5.6875C4.0625 8.83086 6.60664 11.375 9.75 11.375ZM13.65 13H13.2285C12.1723 13.5078 10.9992 13.8125 9.75 13.8125C8.50078 13.8125 7.33281 13.5078 6.27148 13H5.85C2.62031 13 0 15.6203 0 18.85V20.3125C0 21.6582 1.0918 22.75 2.4375 22.75H17.0625C18.4082 22.75 19.5 21.6582 19.5 20.3125V18.85C19.5 15.6203 16.8797 13 13.65 13ZM24.375 11.375C27.0664 11.375 29.25 9.19141 29.25 6.5C29.25 3.80859 27.0664 1.625 24.375 1.625C21.6836 1.625 19.5 3.80859 19.5 6.5C19.5 9.19141 21.6836 11.375 24.375 11.375ZM26.8125 13H26.6195C25.9137 13.2437 25.1672 13.4062 24.375 13.4062C23.5828 13.4062 22.8363 13.2437 22.1305 13H21.9375C20.9016 13 19.9469 13.2996 19.109 13.782C20.348 15.1176 21.125 16.8898 21.125 18.85V20.8C21.125 20.9117 21.0996 21.0184 21.0945 21.125H30.0625C31.4082 21.125 32.5 20.0332 32.5 18.6875C32.5 15.5441 29.9559 13 26.8125 13Z" fill="#107694"/>
</svg>
