<svg width="28" height="23" viewBox="0 0 28 23" fill="none" xmlns="http://www.w3.org/2000/svg">
<path d="M0 1.4C0 0.626801 0.626802 0 1.4 0H26.6C27.3732 0 28 0.626801 28 1.4C28 2.1732 27.3732 2.8 26.6 2.8H1.4C0.626802 2.8 0 2.1732 0 1.4Z" fill="#00112C"/>
<path d="M0 11.2C0 10.4268 0.626802 9.80001 1.4 9.80001H26.6C27.3732 9.80001 28 10.4268 28 11.2C28 11.9732 27.3732 12.6 26.6 12.6H1.4C0.626802 12.6 0 11.9732 0 11.2Z" fill="#00112C"/>
<path d="M0 21C0 20.2268 0.626801 19.6 1.4 19.6H21C21.7732 19.6 22.4 20.2268 22.4 21C22.4 21.7732 21.7732 22.4 21 22.4H1.4C0.6268 22.4 0 21.7732 0 21Z" fill="#00112C"/>
</svg>
