<svg width="55" height="22" viewBox="0 0 55 22" fill="none" xmlns="http://www.w3.org/2000/svg">
<path d="M6.84 9.76204H8.352V10.77H8.394C8.51533 10.5927 8.646 10.4294 8.786 10.28C8.926 10.1307 9.08 10.0047 9.248 9.90204C9.42533 9.79937 9.626 9.72004 9.85 9.66404C10.074 9.59871 10.3307 9.56604 10.62 9.56604C11.0587 9.56604 11.4647 9.66404 11.838 9.86004C12.2207 10.056 12.4913 10.3594 12.65 10.77C12.9207 10.3967 13.2333 10.1027 13.588 9.88804C13.9427 9.67337 14.386 9.56604 14.918 9.56604C15.6833 9.56604 16.276 9.75271 16.696 10.126C17.1253 10.4994 17.34 11.1247 17.34 12.002V17H15.744V12.772C15.744 12.4827 15.7347 12.2214 15.716 11.988C15.6973 11.7454 15.6413 11.54 15.548 11.372C15.464 11.1947 15.3333 11.0594 15.156 10.966C14.9787 10.8727 14.736 10.826 14.428 10.826C13.8867 10.826 13.4947 10.994 13.252 11.33C13.0093 11.666 12.888 12.142 12.888 12.758V17H11.292V12.352C11.292 11.848 11.1987 11.47 11.012 11.218C10.8347 10.9567 10.5033 10.826 10.018 10.826C9.81266 10.826 9.612 10.868 9.416 10.952C9.22933 11.036 9.06133 11.1574 8.912 11.316C8.772 11.4747 8.65533 11.6707 8.562 11.904C8.478 12.1374 8.436 12.4034 8.436 12.702V17H6.84V9.76204Z" fill="white"/>
<path d="M23.0396 17.196C22.461 17.196 21.943 17.1027 21.4856 16.916C21.0376 16.72 20.655 16.454 20.3376 16.118C20.0296 15.782 19.7916 15.3807 19.6236 14.914C19.465 14.4474 19.3856 13.934 19.3856 13.374C19.3856 12.8234 19.465 12.3147 19.6236 11.848C19.7916 11.3814 20.0296 10.98 20.3376 10.644C20.655 10.308 21.0376 10.0467 21.4856 9.86004C21.943 9.66404 22.461 9.56604 23.0396 9.56604C23.6183 9.56604 24.1316 9.66404 24.5796 9.86004C25.037 10.0467 25.4196 10.308 25.7276 10.644C26.045 10.98 26.283 11.3814 26.4416 11.848C26.6096 12.3147 26.6936 12.8234 26.6936 13.374C26.6936 13.934 26.6096 14.4474 26.4416 14.914C26.283 15.3807 26.045 15.782 25.7276 16.118C25.4196 16.454 25.037 16.72 24.5796 16.916C24.1316 17.1027 23.6183 17.196 23.0396 17.196ZM23.0396 15.936C23.3943 15.936 23.7023 15.8614 23.9636 15.712C24.225 15.5627 24.4396 15.3667 24.6076 15.124C24.7756 14.8814 24.897 14.6107 24.9716 14.312C25.0556 14.004 25.0976 13.6914 25.0976 13.374C25.0976 13.066 25.0556 12.758 24.9716 12.45C24.897 12.142 24.7756 11.8714 24.6076 11.638C24.4396 11.3954 24.225 11.1994 23.9636 11.05C23.7023 10.9007 23.3943 10.826 23.0396 10.826C22.685 10.826 22.377 10.9007 22.1156 11.05C21.8543 11.1994 21.6396 11.3954 21.4716 11.638C21.3036 11.8714 21.1776 12.142 21.0936 12.45C21.019 12.758 20.9816 13.066 20.9816 13.374C20.9816 13.6914 21.019 14.004 21.0936 14.312C21.1776 14.6107 21.3036 14.8814 21.4716 15.124C21.6396 15.3667 21.8543 15.5627 22.1156 15.712C22.377 15.8614 22.685 15.936 23.0396 15.936Z" fill="white"/>
<path d="M28.7205 9.76204H30.2185V11.162H30.2465C30.2931 10.966 30.3818 10.7747 30.5125 10.588C30.6525 10.4014 30.8158 10.2334 31.0025 10.084C31.1985 9.92537 31.4131 9.79937 31.6465 9.70604C31.8798 9.61271 32.1178 9.56604 32.3605 9.56604C32.5471 9.56604 32.6731 9.57071 32.7385 9.58004C32.8131 9.58937 32.8878 9.59871 32.9625 9.60804V11.148C32.8505 11.1294 32.7338 11.1154 32.6125 11.106C32.5005 11.0874 32.3885 11.078 32.2765 11.078C32.0058 11.078 31.7491 11.134 31.5065 11.246C31.2731 11.3487 31.0678 11.5074 30.8905 11.722C30.7131 11.9274 30.5731 12.184 30.4705 12.492C30.3678 12.8 30.3165 13.1547 30.3165 13.556V17H28.7205V9.76204Z" fill="white"/>
<path d="M39.0662 12.744C39.0476 12.492 38.9916 12.2494 38.8982 12.016C38.8142 11.7827 38.6929 11.582 38.5342 11.414C38.3849 11.2367 38.1982 11.0967 37.9742 10.994C37.7596 10.882 37.5169 10.826 37.2462 10.826C36.9662 10.826 36.7096 10.8774 36.4762 10.98C36.2522 11.0734 36.0562 11.2087 35.8882 11.386C35.7296 11.554 35.5989 11.7547 35.4962 11.988C35.4029 12.2214 35.3516 12.4734 35.3422 12.744H39.0662ZM35.3422 13.794C35.3422 14.074 35.3796 14.3447 35.4542 14.606C35.5382 14.8674 35.6596 15.096 35.8182 15.292C35.9769 15.488 36.1776 15.6467 36.4202 15.768C36.6629 15.88 36.9522 15.936 37.2882 15.936C37.7549 15.936 38.1282 15.838 38.4082 15.642C38.6976 15.4367 38.9122 15.1334 39.0522 14.732H40.5642C40.4802 15.124 40.3356 15.474 40.1302 15.782C39.9249 16.09 39.6776 16.3514 39.3882 16.566C39.0989 16.7714 38.7722 16.9254 38.4082 17.028C38.0536 17.14 37.6802 17.196 37.2882 17.196C36.7189 17.196 36.2149 17.1027 35.7762 16.916C35.3376 16.7294 34.9642 16.468 34.6562 16.132C34.3576 15.796 34.1289 15.3947 33.9702 14.928C33.8209 14.4614 33.7462 13.948 33.7462 13.388C33.7462 12.8747 33.8256 12.3894 33.9842 11.932C34.1522 11.4654 34.3856 11.0594 34.6842 10.714C34.9922 10.3594 35.3609 10.0794 35.7902 9.87404C36.2196 9.66871 36.7049 9.56604 37.2462 9.56604C37.8156 9.56604 38.3242 9.68737 38.7722 9.93004C39.2296 10.1634 39.6076 10.476 39.9062 10.868C40.2049 11.26 40.4196 11.7127 40.5502 12.226C40.6902 12.73 40.7276 13.2527 40.6622 13.794H35.3422Z" fill="white"/>
<path fill-rule="evenodd" clip-rule="evenodd" d="M45.8238 10.293L45.0858 11.031L47.8479 13.793L45.0858 16.555L45.8238 17.293L49.3238 13.793L45.8238 10.293Z" fill="white"/>
</svg>
