<svg width="25" height="28" viewBox="0 0 25 28" fill="none" xmlns="http://www.w3.org/2000/svg">
<path d="M23.8937 6.34752C24.4958 6.96538 25 8.2011 25 9.08621V26.3966C25 27.2817 24.3 28 23.4375 28H1.5625C0.7 28 0 27.2817 0 26.3966V1.60345C0 0.718345 0.7 0 1.5625 0H16.1458C17.0083 0 18.2125 0.517379 18.8146 1.13524L23.8937 6.34752ZM16.6677 2.27155V8.55172H22.7875C22.6896 8.26738 22.5437 7.9841 22.4292 7.86652L17.3344 2.63821C17.2208 2.52169 16.9448 2.37203 16.6677 2.27155ZM22.9177 25.8621V10.6897H16.1469C15.2844 10.6897 14.5844 9.97131 14.5844 9.08621V2.13793H2.08437V25.8621H22.9177ZM6.25104 15.2931C6.25104 14.9927 6.47917 14.7586 6.77187 14.7586H18.2302C18.5229 14.7586 18.751 14.9927 18.751 15.2931V16.3621C18.751 16.6624 18.5229 16.8966 18.2302 16.8966H6.77187C6.47917 16.8966 6.25104 16.6624 6.25104 16.3621V15.2931ZM18.2302 19.0345C18.5229 19.0345 18.751 19.2686 18.751 19.569V20.6379C18.751 20.9383 18.5229 21.1724 18.2302 21.1724H6.77187C6.47917 21.1724 6.25104 20.9383 6.25104 20.6379V19.569C6.25104 19.2686 6.47917 19.0345 6.77187 19.0345H18.2302Z" fill="#F0941D"/>
</svg>
