<svg width="32" height="31" viewBox="0 0 32 31" fill="none" xmlns="http://www.w3.org/2000/svg">
<path d="M3.96458 1.14815C3.96458 0.514044 4.47174 0 5.09732 0H26.6195C27.2451 0 27.7521 0.514044 27.7521 1.14815C27.7521 1.78225 27.2451 2.29629 26.6195 2.29629H5.09732C4.47174 2.29629 3.96458 1.78225 3.96458 1.14815Z" fill="#8FC31F"/>
<path d="M5.42848 3.44443C4.52201 3.44443 3.68374 3.93245 3.227 4.7261L0.273297 9.85843C0.0943119 10.1694 0 10.523 0 10.8831C0 12.0062 0.898239 12.9167 2.00627 12.9167H29.9937C31.1018 12.9167 32 12.0062 32 10.8831C32 10.523 31.9057 10.1694 31.7267 9.85843L28.7729 4.7261C28.3162 3.93245 27.478 3.44443 26.5715 3.44443H5.42848Z" fill="#8FC31F"/>
<path fill-rule="evenodd" clip-rule="evenodd" d="M26.0531 14.3518H5.66371L3.39821 14.3519V28.4167C3.39821 29.8434 4.5393 31 5.9469 31H25.7699C27.1774 31 28.3185 29.8434 28.3185 28.4167V14.3519L26.0531 14.3518ZM26.0531 14.3518H5.66371V26.1203C5.66371 27.547 6.80479 28.7036 8.21238 28.7036H23.5044C24.912 28.7036 26.0531 27.547 26.0531 26.1203V14.3518Z" fill="#8FC31F"/>
<path d="M18.3658 16.8715C18.3658 16.2787 18.6854 15.7107 19.3244 15.1671C19.9633 14.6236 20.696 14.3518 21.5222 14.3518V26.9815H19.9588V21.9414H18.3658V16.8715ZM15.2391 18.769V14.3518H16.4784V18.769C16.4784 19.441 16.2522 20.0191 15.7999 20.5031C15.3476 20.9871 14.7871 21.249 14.1182 21.2887V26.9808H12.5548V21.2887C11.886 21.249 11.3255 20.9871 10.8732 20.5031C10.4208 20.0191 10.1947 19.441 10.1947 18.769V14.3518H11.4635V18.769H12.7027V14.3518H13.9716V18.769H15.2404H15.2391Z" fill="#8FC31F"/>
</svg>
